# xmcd
#
# Track frame offsets:
#	160
#	11725
#	14215
#	20457
#	22925
#	32037
#	34465
#	42252
#	44775
#	54632
#	57155
#	68607
#	71115
#	82790
#	85305
#	87827
#	95005
#	97405
#	107525
#	110052
#	119862
#	122377
#	131070
#	133755
#	140550
#	143200
#	155032
#	157547
#	170715
#	173185
#	186602
#	189062
#	201100
#	203522
#	206387
#	210145
#	215590
#	219795
#	223170
#	226330
#	229100
#	233327
#
# Disc length: 3165 seconds
#
# Revision: 1
# Processed by: cddbd v1.4PL0 Copyright (c) Steve Scherf et al.
# Submitted via: audiograbber 1.82.02
#
DISCID=630c5b2a
DTITLE=misc. - American Country
DYEAR=1900
DGENRE=Country
TTITLE0=S. Donnely - Blue ridge party
TTITLE1=S. Donnely - Blue ridge party
TTITLE2=S. Donnely - Southern deep fried !
TTITLE3=S. Donnely - Southern deep fried !
TTITLE4=S. Donnely - Blue ridge blues
TTITLE5=S. Donnely - Blue ridge blues
TTITLE6=S. Donnely - Cumberland creek
TTITLE7=S. Donnely - Cumberland creek
TTITLE8=S. Donnely - Magnolia state
TTITLE9=S. Donnely - Magnolia state
TTITLE10=S. Donnely - Magnolia drive
TTITLE11=S. Donnely - Magnolia drive
TTITLE12=S. Donnely - Magnolia sunset
TTITLE13=S. Donnely - Magnolia sunset
TTITLE14=S. Donnely - Magnolia sunset
TTITLE15=S. Donnely and G. Watkins - Swamp stomp
TTITLE16=S. Donnely and G. Watkins - Swamp stomp
TTITLE17=S. Donnely and G. Watkins - Char - broiled blues !
TTITLE18=S. Donnely and G. Watkins - Char - broiled blues !
TTITLE19=S. Donnely and G. Watkins - Lousiana nights
TTITLE20=S. Donnely and G. Watkins - Lousiana nights
TTITLE21=S. Donnely - Dusty boots
TTITLE22=S. Donnely - Dusty boots
TTITLE23=S. Donnely - Desert highway
TTITLE24=S. Donnely - Desert highway
TTITLE25=R.Williams and M.Brittain - Railroader
TTITLE26=R.Williams and M.Brittain - Railroader
TTITLE27=R.Williams and M.Brittain - Corn dog hop !
TTITLE28=R.Williams and M.Brittain - Corn dog hop !
TTITLE29=R.Williams and M.Brittain - Corn dog blues
TTITLE30=R.Williams and M.Brittain - Corn dog blues
TTITLE31=R.Williams and M.Brittain - Corn dog waltz
TTITLE32=R.Williams and M.Brittain - Corn dog waltz
TTITLE33=G.Brand - Dixie
TTITLE34=G.Brand - Campton races
TTITLE35=G.Brand - Battlehymn of the republic
TTITLE36=G.Brand - Marching through Georgia
TTITLE37=G.Brand - When Johnny comes home
TTITLE38=G.Brand - The girl i left behind me
TTITLE39=G.Brand - Yankie doodle
TTITLE40=G.Brand - Yellow rose of Texas
TTITLE41=G.Brand - Gary Owen
EXTD=
EXTT0=
EXTT1=
EXTT2=
EXTT3=
EXTT4=
EXTT5=
EXTT6=
EXTT7=
EXTT8=
EXTT9=
EXTT10=
EXTT11=
EXTT12=
EXTT13=
EXTT14=
EXTT15=
EXTT16=
EXTT17=
EXTT18=
EXTT19=
EXTT20=
EXTT21=
EXTT22=
EXTT23=
EXTT24=
EXTT25=
EXTT26=
EXTT27=
EXTT28=
EXTT29=
EXTT30=
EXTT31=
EXTT32=
EXTT33=
EXTT34=
EXTT35=
EXTT36=
EXTT37=
EXTT38=
EXTT39=
EXTT40=
EXTT41=
PLAYORDER=
